<svg xmlns="http://www.w3.org/2000/svg" xmlns:xlink="http://www.w3.org/1999/xlink" width="120" zoomAndPan="magnify" viewBox="0 0 90 60" height="80" preserveAspectRatio="xMidYMid meet" version="1.0"><defs><g><g id="id1"/></g></defs><path fill="rgb(50.588989%, 29.798889%, 62.348938%)" d="M 81.832031 36.769531 L 5.269531 36.769531 C 3.894531 36.769531 2.777344 35.683594 2.777344 34.347656 L 2.777344 25.304688 C 2.777344 23.96875 3.894531 22.882812 5.269531 22.882812 L 81.832031 22.882812 C 83.207031 22.882812 84.328125 23.96875 84.328125 25.304688 L 84.328125 34.347656 C 84.328125 35.683594 83.207031 36.769531 81.832031 36.769531 " fill-opacity="1" fill-rule="nonzero"/><g fill="rgb(0%, 0%, 0%)" fill-opacity="1"><g transform="translate(33.233757, 32.967325)"><g><path d="M 2.125 0.109375 C 1.738281 0.109375 1.363281 0.0234375 1 -0.140625 C 0.644531 -0.304688 0.328125 -0.585938 0.046875 -0.984375 L 0.921875 -1.671875 C 1.078125 -1.441406 1.265625 -1.257812 1.484375 -1.125 C 1.710938 -1 1.953125 -0.9375 2.203125 -0.9375 C 2.453125 -0.9375 2.65625 -0.992188 2.8125 -1.109375 C 2.96875 -1.234375 3.046875 -1.398438 3.046875 -1.609375 C 3.046875 -1.753906 2.984375 -1.875 2.859375 -1.96875 C 2.742188 -2.070312 2.582031 -2.191406 2.375 -2.328125 L 1.8125 -2.65625 C 1.550781 -2.820312 1.34375 -3.015625 1.1875 -3.234375 C 1.03125 -3.460938 0.953125 -3.753906 0.953125 -4.109375 C 0.953125 -4.359375 1.003906 -4.59375 1.109375 -4.8125 C 1.222656 -5.03125 1.367188 -5.21875 1.546875 -5.375 C 1.722656 -5.539062 1.9375 -5.671875 2.1875 -5.765625 C 2.4375 -5.859375 2.707031 -5.90625 3 -5.90625 C 3.34375 -5.90625 3.664062 -5.828125 3.96875 -5.671875 C 4.269531 -5.515625 4.53125 -5.300781 4.75 -5.03125 L 3.984375 -4.3125 C 3.835938 -4.46875 3.679688 -4.597656 3.515625 -4.703125 C 3.347656 -4.804688 3.15625 -4.859375 2.9375 -4.859375 C 2.695312 -4.859375 2.515625 -4.796875 2.390625 -4.671875 C 2.265625 -4.546875 2.203125 -4.398438 2.203125 -4.234375 C 2.203125 -4.085938 2.265625 -3.960938 2.390625 -3.859375 C 2.523438 -3.765625 2.707031 -3.648438 2.9375 -3.515625 L 3.5 -3.15625 C 3.78125 -2.988281 3.984375 -2.800781 4.109375 -2.59375 C 4.242188 -2.382812 4.3125 -2.113281 4.3125 -1.78125 C 4.3125 -1.507812 4.257812 -1.257812 4.15625 -1.03125 C 4.050781 -0.800781 3.898438 -0.601562 3.703125 -0.4375 C 3.515625 -0.269531 3.285156 -0.132812 3.015625 -0.03125 C 2.753906 0.0625 2.457031 0.109375 2.125 0.109375 Z M 2.125 0.109375 "/></g></g></g><g fill="rgb(0%, 0%, 0%)" fill-opacity="1"><g transform="translate(38.299009, 32.967325)"><g><path d="M 2.265625 -3.140625 L 1.921875 -2.375 L 3.15625 -2.375 L 3.125 -3.140625 C 3.113281 -3.429688 3.101562 -3.710938 3.09375 -3.984375 C 3.082031 -4.265625 3.070312 -4.5625 3.0625 -4.875 L 3.015625 -4.875 C 2.890625 -4.570312 2.765625 -4.28125 2.640625 -4 C 2.523438 -3.71875 2.398438 -3.429688 2.265625 -3.140625 Z M -0.546875 0 L 2.515625 -5.8125 L 3.96875 -5.8125 L 4.546875 0 L 3.28125 0 L 3.203125 -1.453125 L 1.484375 -1.453125 L 0.796875 0 Z M -0.546875 0 "/></g></g></g><g fill="rgb(0%, 0%, 0%)" fill-opacity="1"><g transform="translate(43.533408, 32.967325)"><g><path d="M 1.1875 0 L 0.703125 -5.8125 L 1.984375 -5.8125 L 2.125 -2.953125 C 2.132812 -2.640625 2.144531 -2.328125 2.15625 -2.015625 C 2.175781 -1.710938 2.1875 -1.40625 2.1875 -1.09375 L 2.234375 -1.09375 C 2.367188 -1.40625 2.5 -1.710938 2.625 -2.015625 C 2.757812 -2.328125 2.894531 -2.640625 3.03125 -2.953125 L 4.328125 -5.8125 L 5.671875 -5.8125 L 2.671875 0 Z M 1.1875 0 "/></g></g></g><g fill="rgb(0%, 0%, 0%)" fill-opacity="1"><g transform="translate(48.821212, 32.967325)"><g><path d="M 0.25 0 L 1.421875 -5.8125 L 4.859375 -5.8125 L 4.65625 -4.78125 L 2.421875 -4.78125 L 2.171875 -3.515625 L 4.0625 -3.515625 L 3.875 -2.5 L 1.984375 -2.5 L 1.671875 -1.03125 L 3.984375 -1.03125 L 3.78125 0 Z M 0.25 0 "/></g></g></g></svg>