<svg xmlns="http://www.w3.org/2000/svg" xmlns:xlink="http://www.w3.org/1999/xlink" width="60" zoomAndPan="magnify" viewBox="0 0 45 30.000001" height="40" preserveAspectRatio="xMidYMid meet" version="1.0"><path fill="rgb(100%, 8.628845%, 8.628845%)" d="M 8.710938 9.453125 C 5.902344 9.453125 3.628906 11.726562 3.628906 14.53125 C 3.628906 17.339844 5.902344 19.613281 8.710938 19.613281 C 11.515625 19.613281 13.789062 17.339844 13.789062 14.53125 C 13.789062 11.726562 11.515625 9.453125 8.710938 9.453125 " fill-opacity="1" fill-rule="nonzero"/><path fill="rgb(100%, 87.059021%, 34.899902%)" d="M 22.515625 9.453125 C 19.710938 9.453125 17.4375 11.726562 17.4375 14.53125 C 17.4375 17.339844 19.710938 19.613281 22.515625 19.613281 C 25.320312 19.613281 27.597656 17.339844 27.597656 14.53125 C 27.597656 11.726562 25.320312 9.453125 22.515625 9.453125 " fill-opacity="1" fill-rule="nonzero"/><path fill="rgb(49.409485%, 85.099792%, 34.118652%)" d="M 36.324219 9.453125 C 33.515625 9.453125 31.242188 11.726562 31.242188 14.53125 C 31.242188 17.339844 33.515625 19.613281 36.324219 19.613281 C 39.128906 19.613281 41.402344 17.339844 41.402344 14.53125 C 41.402344 11.726562 39.128906 9.453125 36.324219 9.453125 " fill-opacity="1" fill-rule="nonzero"/></svg>