<svg xmlns="http://www.w3.org/2000/svg" xmlns:xlink="http://www.w3.org/1999/xlink" width="120" zoomAndPan="magnify" viewBox="0 0 90 60" height="80" preserveAspectRatio="xMidYMid meet" version="1.0"><defs><g><g id="id1"/></g></defs><path fill="rgb(50.588989%, 29.798889%, 62.348938%)" d="M 81.261719 37.132812 L 5.25 37.132812 C 3.886719 37.132812 2.777344 36.015625 2.777344 34.644531 L 2.777344 25.367188 C 2.777344 24 3.886719 22.882812 5.25 22.882812 L 81.261719 22.882812 C 82.625 22.882812 83.738281 24 83.738281 25.367188 L 83.738281 34.644531 C 83.738281 36.015625 82.625 37.132812 81.261719 37.132812 " fill-opacity="1" fill-rule="nonzero"/><g fill="rgb(0%, 0%, 0%)" fill-opacity="1"><g transform="translate(14.505579, 31.967337)"><g><path d="M 0.875 0 L 1.5 -3.171875 L 0.5 -3.171875 L 0.625 -3.84375 L 3.46875 -3.84375 L 3.328125 -3.171875 L 2.3125 -3.171875 L 1.6875 0 Z M 0.875 0 "/></g></g></g><g fill="rgb(0%, 0%, 0%)" fill-opacity="1"><g transform="translate(17.881551, 31.967337)"><g><path d="M 0.171875 0 L 0.9375 -3.84375 L 2.140625 -3.84375 C 2.328125 -3.84375 2.5 -3.828125 2.65625 -3.796875 C 2.820312 -3.765625 2.960938 -3.707031 3.078125 -3.625 C 3.203125 -3.550781 3.296875 -3.445312 3.359375 -3.3125 C 3.429688 -3.1875 3.46875 -3.035156 3.46875 -2.859375 C 3.46875 -2.679688 3.441406 -2.519531 3.390625 -2.375 C 3.335938 -2.226562 3.265625 -2.097656 3.171875 -1.984375 C 3.085938 -1.878906 2.984375 -1.785156 2.859375 -1.703125 C 2.742188 -1.628906 2.617188 -1.570312 2.484375 -1.53125 L 3.078125 0 L 2.234375 0 L 1.734375 -1.40625 L 1.265625 -1.40625 L 0.984375 0 Z M 1.390625 -2.0625 L 1.796875 -2.0625 C 2.085938 -2.0625 2.300781 -2.117188 2.4375 -2.234375 C 2.582031 -2.359375 2.65625 -2.53125 2.65625 -2.75 C 2.65625 -2.914062 2.597656 -3.03125 2.484375 -3.09375 C 2.378906 -3.164062 2.222656 -3.203125 2.015625 -3.203125 L 1.609375 -3.203125 Z M 1.390625 -2.0625 "/></g></g></g><g fill="rgb(0%, 0%, 0%)" fill-opacity="1"><g transform="translate(21.635254, 31.967337)"><g><path d="M 0.8125 0 L 1.09375 -1.390625 L 0.46875 -3.84375 L 1.3125 -3.84375 L 1.484375 -2.921875 C 1.503906 -2.773438 1.523438 -2.632812 1.546875 -2.5 C 1.566406 -2.363281 1.59375 -2.222656 1.625 -2.078125 L 1.640625 -2.078125 C 1.722656 -2.222656 1.800781 -2.363281 1.875 -2.5 C 1.945312 -2.644531 2.03125 -2.789062 2.125 -2.9375 L 2.65625 -3.84375 L 3.53125 -3.84375 L 1.890625 -1.390625 L 1.625 0 Z M 0.8125 0 "/></g></g></g><g fill="rgb(0%, 0%, 0%)" fill-opacity="1"><g transform="translate(24.87548, 31.967337)"><g/></g></g><g fill="rgb(0%, 0%, 0%)" fill-opacity="1"><g transform="translate(26.280169, 31.967337)"><g><path d="M 0.453125 0 L 0.59375 -3.84375 L 1.421875 -3.84375 L 1.296875 -2 C 1.273438 -1.789062 1.253906 -1.582031 1.234375 -1.375 C 1.210938 -1.175781 1.191406 -0.972656 1.171875 -0.765625 L 1.203125 -0.765625 C 1.273438 -0.972656 1.351562 -1.179688 1.4375 -1.390625 C 1.53125 -1.597656 1.617188 -1.800781 1.703125 -2 L 2.5 -3.84375 L 3.171875 -3.84375 L 3.1875 -2 C 3.1875 -1.800781 3.179688 -1.597656 3.171875 -1.390625 C 3.160156 -1.179688 3.148438 -0.972656 3.140625 -0.765625 L 3.171875 -0.765625 C 3.242188 -0.972656 3.316406 -1.179688 3.390625 -1.390625 C 3.460938 -1.597656 3.535156 -1.800781 3.609375 -2 L 4.25 -3.84375 L 5.03125 -3.84375 L 3.53125 0 L 2.515625 0 L 2.53125 -1.84375 C 2.53125 -1.96875 2.535156 -2.109375 2.546875 -2.265625 C 2.554688 -2.429688 2.570312 -2.585938 2.59375 -2.734375 L 2.5625 -2.734375 C 2.507812 -2.585938 2.453125 -2.4375 2.390625 -2.28125 C 2.328125 -2.132812 2.269531 -1.988281 2.21875 -1.84375 L 1.453125 0 Z M 0.453125 0 "/></g></g></g><g fill="rgb(0%, 0%, 0%)" fill-opacity="1"><g transform="translate(31.202474, 31.967337)"><g><path d="M 0.171875 0 L 0.9375 -3.84375 L 1.75 -3.84375 L 0.984375 0 Z M 0.171875 0 "/></g></g></g><g fill="rgb(0%, 0%, 0%)" fill-opacity="1"><g transform="translate(33.173759, 31.967337)"><g><path d="M 0.875 0 L 1.5 -3.171875 L 0.5 -3.171875 L 0.625 -3.84375 L 3.46875 -3.84375 L 3.328125 -3.171875 L 2.3125 -3.171875 L 1.6875 0 Z M 0.875 0 "/></g></g></g><g fill="rgb(0%, 0%, 0%)" fill-opacity="1"><g transform="translate(36.549731, 31.967337)"><g><path d="M 0.171875 0 L 0.9375 -3.84375 L 1.75 -3.84375 L 1.4375 -2.359375 L 2.765625 -2.359375 L 3.046875 -3.84375 L 3.859375 -3.84375 L 3.09375 0 L 2.28125 0 L 2.609375 -1.640625 L 1.296875 -1.640625 L 0.984375 0 Z M 0.171875 0 "/></g></g></g><g fill="rgb(0%, 0%, 0%)" fill-opacity="1"><g transform="translate(40.633945, 31.967337)"><g/></g></g><g fill="rgb(0%, 0%, 0%)" fill-opacity="1"><g transform="translate(42.038634, 31.967337)"><g><path d="M 0.171875 0 L 0.9375 -3.84375 L 1.75 -3.84375 L 1.4375 -2.359375 L 2.765625 -2.359375 L 3.046875 -3.84375 L 3.859375 -3.84375 L 3.09375 0 L 2.28125 0 L 2.609375 -1.640625 L 1.296875 -1.640625 L 0.984375 0 Z M 0.171875 0 "/></g></g></g><g fill="rgb(0%, 0%, 0%)" fill-opacity="1"><g transform="translate(46.12285, 31.967337)"><g><path d="M 0.171875 0 L 0.9375 -3.84375 L 1.75 -3.84375 L 0.984375 0 Z M 0.171875 0 "/></g></g></g><g fill="rgb(0%, 0%, 0%)" fill-opacity="1"><g transform="translate(48.094137, 31.967337)"><g><path d="M 1.859375 0.078125 C 1.617188 0.078125 1.40625 0.0390625 1.21875 -0.03125 C 1.03125 -0.101562 0.867188 -0.207031 0.734375 -0.34375 C 0.597656 -0.488281 0.492188 -0.660156 0.421875 -0.859375 C 0.359375 -1.054688 0.328125 -1.285156 0.328125 -1.546875 C 0.328125 -1.867188 0.378906 -2.175781 0.484375 -2.46875 C 0.597656 -2.757812 0.742188 -3.007812 0.921875 -3.21875 C 1.109375 -3.4375 1.332031 -3.609375 1.59375 -3.734375 C 1.851562 -3.859375 2.132812 -3.921875 2.4375 -3.921875 C 2.6875 -3.921875 2.898438 -3.863281 3.078125 -3.75 C 3.253906 -3.644531 3.398438 -3.5 3.515625 -3.3125 L 2.96875 -2.875 C 2.894531 -2.988281 2.8125 -3.070312 2.71875 -3.125 C 2.632812 -3.1875 2.523438 -3.21875 2.390625 -3.21875 C 2.210938 -3.21875 2.046875 -3.171875 1.890625 -3.078125 C 1.742188 -2.992188 1.613281 -2.875 1.5 -2.71875 C 1.394531 -2.570312 1.3125 -2.398438 1.25 -2.203125 C 1.1875 -2.003906 1.15625 -1.800781 1.15625 -1.59375 C 1.15625 -1.445312 1.171875 -1.3125 1.203125 -1.1875 C 1.234375 -1.070312 1.28125 -0.96875 1.34375 -0.875 C 1.414062 -0.789062 1.503906 -0.726562 1.609375 -0.6875 C 1.710938 -0.644531 1.84375 -0.625 2 -0.625 C 2.070312 -0.625 2.144531 -0.632812 2.21875 -0.65625 C 2.289062 -0.675781 2.359375 -0.707031 2.421875 -0.75 L 2.578125 -1.5 L 1.953125 -1.5 L 2.078125 -2.171875 L 3.40625 -2.171875 L 3.0625 -0.328125 C 2.90625 -0.210938 2.722656 -0.113281 2.515625 -0.03125 C 2.316406 0.0390625 2.097656 0.078125 1.859375 0.078125 Z M 1.859375 0.078125 "/></g></g></g><g fill="rgb(0%, 0%, 0%)" fill-opacity="1"><g transform="translate(51.936368, 31.967337)"><g><path d="M 0.171875 0 L 0.9375 -3.84375 L 1.75 -3.84375 L 1.4375 -2.359375 L 2.765625 -2.359375 L 3.046875 -3.84375 L 3.859375 -3.84375 L 3.09375 0 L 2.28125 0 L 2.609375 -1.640625 L 1.296875 -1.640625 L 0.984375 0 Z M 0.171875 0 "/></g></g></g><g fill="rgb(0%, 0%, 0%)" fill-opacity="1"><g transform="translate(56.020581, 31.967337)"><g><path d="M 0.171875 0 L 0.9375 -3.84375 L 1.75 -3.84375 L 1.109375 -0.671875 L 2.5625 -0.671875 L 2.4375 0 Z M 0.171875 0 "/></g></g></g><g fill="rgb(0%, 0%, 0%)" fill-opacity="1"><g transform="translate(59.207689, 31.967337)"><g><path d="M 0.171875 0 L 0.9375 -3.84375 L 1.75 -3.84375 L 0.984375 0 Z M 0.171875 0 "/></g></g></g><g fill="rgb(0%, 0%, 0%)" fill-opacity="1"><g transform="translate(61.178976, 31.967337)"><g><path d="M 1.859375 0.078125 C 1.617188 0.078125 1.40625 0.0390625 1.21875 -0.03125 C 1.03125 -0.101562 0.867188 -0.207031 0.734375 -0.34375 C 0.597656 -0.488281 0.492188 -0.660156 0.421875 -0.859375 C 0.359375 -1.054688 0.328125 -1.285156 0.328125 -1.546875 C 0.328125 -1.867188 0.378906 -2.175781 0.484375 -2.46875 C 0.597656 -2.757812 0.742188 -3.007812 0.921875 -3.21875 C 1.109375 -3.4375 1.332031 -3.609375 1.59375 -3.734375 C 1.851562 -3.859375 2.132812 -3.921875 2.4375 -3.921875 C 2.6875 -3.921875 2.898438 -3.863281 3.078125 -3.75 C 3.253906 -3.644531 3.398438 -3.5 3.515625 -3.3125 L 2.96875 -2.875 C 2.894531 -2.988281 2.8125 -3.070312 2.71875 -3.125 C 2.632812 -3.1875 2.523438 -3.21875 2.390625 -3.21875 C 2.210938 -3.21875 2.046875 -3.171875 1.890625 -3.078125 C 1.742188 -2.992188 1.613281 -2.875 1.5 -2.71875 C 1.394531 -2.570312 1.3125 -2.398438 1.25 -2.203125 C 1.1875 -2.003906 1.15625 -1.800781 1.15625 -1.59375 C 1.15625 -1.445312 1.171875 -1.3125 1.203125 -1.1875 C 1.234375 -1.070312 1.28125 -0.96875 1.34375 -0.875 C 1.414062 -0.789062 1.503906 -0.726562 1.609375 -0.6875 C 1.710938 -0.644531 1.84375 -0.625 2 -0.625 C 2.070312 -0.625 2.144531 -0.632812 2.21875 -0.65625 C 2.289062 -0.675781 2.359375 -0.707031 2.421875 -0.75 L 2.578125 -1.5 L 1.953125 -1.5 L 2.078125 -2.171875 L 3.40625 -2.171875 L 3.0625 -0.328125 C 2.90625 -0.210938 2.722656 -0.113281 2.515625 -0.03125 C 2.316406 0.0390625 2.097656 0.078125 1.859375 0.078125 Z M 1.859375 0.078125 "/></g></g></g><g fill="rgb(0%, 0%, 0%)" fill-opacity="1"><g transform="translate(65.021208, 31.967337)"><g><path d="M 0.171875 0 L 0.9375 -3.84375 L 1.75 -3.84375 L 1.4375 -2.359375 L 2.765625 -2.359375 L 3.046875 -3.84375 L 3.859375 -3.84375 L 3.09375 0 L 2.28125 0 L 2.609375 -1.640625 L 1.296875 -1.640625 L 0.984375 0 Z M 0.171875 0 "/></g></g></g><g fill="rgb(0%, 0%, 0%)" fill-opacity="1"><g transform="translate(69.105424, 31.967337)"><g><path d="M 0.875 0 L 1.5 -3.171875 L 0.5 -3.171875 L 0.625 -3.84375 L 3.46875 -3.84375 L 3.328125 -3.171875 L 2.3125 -3.171875 L 1.6875 0 Z M 0.875 0 "/></g></g></g></svg>