<svg xmlns="http://www.w3.org/2000/svg" xmlns:xlink="http://www.w3.org/1999/xlink" width="120" zoomAndPan="magnify" viewBox="0 0 90 60" height="80" preserveAspectRatio="xMidYMid meet" version="1.0"><defs><g><g id="id1"/></g></defs><g fill="rgb(100%, 0%, 100%)" fill-opacity="1"><g transform="translate(5.279575, 40.660077)"><g><path d="M 7.203125 0 L 2.90625 0 C 2.5625 0 2.304688 -0.078125 2.140625 -0.234375 C 1.984375 -0.390625 1.90625 -0.644531 1.90625 -1 L 1.90625 -18.96875 C 1.90625 -19.320312 1.984375 -19.578125 2.140625 -19.734375 C 2.304688 -19.890625 2.5625 -19.96875 2.90625 -19.96875 L 11.40625 -19.96875 C 13.914062 -19.96875 15.628906 -19.46875 16.546875 -18.46875 C 17.472656 -17.46875 17.9375 -16.164062 17.9375 -14.5625 L 17.9375 -11.015625 C 17.9375 -9.398438 17.472656 -8.09375 16.546875 -7.09375 C 15.628906 -6.101562 13.914062 -5.609375 11.40625 -5.609375 L 8.203125 -5.609375 L 8.203125 -1 C 8.203125 -0.644531 8.125 -0.390625 7.96875 -0.234375 C 7.8125 -0.078125 7.554688 0 7.203125 0 Z M 8.15625 -14.78125 L 8.15625 -10.59375 L 10.65625 -10.59375 C 11.1875 -10.59375 11.535156 -10.726562 11.703125 -11 C 11.867188 -11.28125 11.953125 -11.597656 11.953125 -11.953125 L 11.953125 -13.421875 C 11.953125 -13.773438 11.867188 -14.085938 11.703125 -14.359375 C 11.535156 -14.640625 11.1875 -14.78125 10.65625 -14.78125 Z M 8.15625 -14.78125 "/></g></g></g><g fill="rgb(100%, 0%, 100%)" fill-opacity="1"><g transform="translate(24.196434, 40.660077)"><g><path d="M 17.03125 0 L 2.90625 0 C 2.5625 0 2.304688 -0.078125 2.140625 -0.234375 C 1.984375 -0.390625 1.90625 -0.644531 1.90625 -1 L 1.90625 -18.96875 C 1.90625 -19.320312 1.984375 -19.578125 2.140625 -19.734375 C 2.304688 -19.890625 2.5625 -19.96875 2.90625 -19.96875 L 7.203125 -19.96875 C 7.554688 -19.96875 7.8125 -19.890625 7.96875 -19.734375 C 8.125 -19.578125 8.203125 -19.320312 8.203125 -18.96875 L 8.203125 -5.234375 L 12.015625 -5.234375 L 12.015625 -9.734375 C 12.015625 -10.085938 12.09375 -10.34375 12.25 -10.5 C 12.40625 -10.65625 12.65625 -10.734375 13 -10.734375 L 17.03125 -10.734375 C 17.382812 -10.734375 17.640625 -10.65625 17.796875 -10.5 C 17.953125 -10.34375 18.03125 -10.085938 18.03125 -9.734375 L 18.03125 -1 C 18.03125 -0.644531 17.953125 -0.390625 17.796875 -0.234375 C 17.640625 -0.078125 17.382812 0 17.03125 0 Z M 17.03125 0 "/></g></g></g><g fill="rgb(100%, 0%, 100%)" fill-opacity="1"><g transform="translate(43.47388, 40.660077)"><g><path d="M 9.15625 -14.140625 L 7.84375 -9.921875 L 12.203125 -9.921875 L 10.90625 -14.140625 C 10.820312 -14.304688 10.738281 -14.425781 10.65625 -14.5 C 10.570312 -14.570312 10.476562 -14.609375 10.375 -14.609375 L 9.671875 -14.609375 C 9.566406 -14.609375 9.472656 -14.570312 9.390625 -14.5 C 9.304688 -14.425781 9.226562 -14.304688 9.15625 -14.140625 Z M 7.578125 -1 C 7.578125 -0.644531 7.492188 -0.390625 7.328125 -0.234375 C 7.171875 -0.078125 6.921875 0 6.578125 0 L 2.5 0 C 2.144531 0 1.890625 -0.078125 1.734375 -0.234375 C 1.578125 -0.390625 1.5 -0.644531 1.5 -1 L 1.5 -8.3125 C 1.5 -8.875 1.585938 -9.515625 1.765625 -10.234375 C 1.941406 -10.953125 2.210938 -11.789062 2.578125 -12.75 L 4.984375 -19.046875 C 5.097656 -19.367188 5.269531 -19.601562 5.5 -19.75 C 5.738281 -19.894531 6.039062 -19.96875 6.40625 -19.96875 L 13.859375 -19.96875 C 14.210938 -19.96875 14.503906 -19.894531 14.734375 -19.75 C 14.972656 -19.601562 15.144531 -19.367188 15.25 -19.046875 L 17.671875 -12.75 C 18.035156 -11.789062 18.304688 -10.953125 18.484375 -10.234375 C 18.660156 -9.515625 18.75 -8.875 18.75 -8.3125 L 18.75 -1 C 18.75 -0.644531 18.671875 -0.390625 18.515625 -0.234375 C 18.359375 -0.078125 18.101562 0 17.75 0 L 13.5625 0 C 13.1875 0 12.910156 -0.078125 12.734375 -0.234375 C 12.566406 -0.390625 12.484375 -0.644531 12.484375 -1 L 12.484375 -4.875 L 7.578125 -4.875 Z M 7.578125 -1 "/></g></g></g><g fill="rgb(100%, 0%, 100%)" fill-opacity="1"><g transform="translate(63.722132, 40.660077)"><g><path d="M 12.03125 0 L 7.546875 0 C 7.191406 0 6.9375 -0.078125 6.78125 -0.234375 C 6.625 -0.390625 6.546875 -0.644531 6.546875 -1 L 6.546875 -4.546875 L 2.296875 -10.234375 C 1.867188 -10.804688 1.585938 -11.304688 1.453125 -11.734375 C 1.316406 -12.160156 1.25 -12.796875 1.25 -13.640625 L 1.25 -18.96875 C 1.25 -19.320312 1.328125 -19.578125 1.484375 -19.734375 C 1.640625 -19.890625 1.894531 -19.96875 2.25 -19.96875 L 6.515625 -19.96875 C 6.867188 -19.96875 7.125 -19.890625 7.28125 -19.734375 C 7.4375 -19.578125 7.515625 -19.320312 7.515625 -18.96875 L 7.515625 -14.421875 C 7.515625 -14.234375 7.523438 -14.035156 7.546875 -13.828125 C 7.566406 -13.628906 7.640625 -13.4375 7.765625 -13.25 L 9.046875 -11.265625 C 9.140625 -11.097656 9.234375 -10.972656 9.328125 -10.890625 C 9.429688 -10.816406 9.554688 -10.78125 9.703125 -10.78125 L 9.984375 -10.78125 C 10.128906 -10.78125 10.253906 -10.816406 10.359375 -10.890625 C 10.460938 -10.972656 10.5625 -11.097656 10.65625 -11.265625 L 11.921875 -13.25 C 12.054688 -13.4375 12.128906 -13.628906 12.140625 -13.828125 C 12.160156 -14.035156 12.171875 -14.234375 12.171875 -14.421875 L 12.171875 -18.96875 C 12.171875 -19.320312 12.25 -19.578125 12.40625 -19.734375 C 12.5625 -19.890625 12.816406 -19.96875 13.171875 -19.96875 L 17.3125 -19.96875 C 17.65625 -19.96875 17.90625 -19.890625 18.0625 -19.734375 C 18.21875 -19.578125 18.296875 -19.320312 18.296875 -18.96875 L 18.296875 -13.640625 C 18.296875 -12.796875 18.222656 -12.160156 18.078125 -11.734375 C 17.929688 -11.304688 17.65625 -10.804688 17.25 -10.234375 L 13.03125 -4.515625 L 13.03125 -1 C 13.03125 -0.644531 12.953125 -0.390625 12.796875 -0.234375 C 12.640625 -0.078125 12.382812 0 12.03125 0 Z M 12.03125 0 "/></g></g></g><g fill="rgb(0%, 100%, 100%)" fill-opacity="1"><g transform="translate(6.724939, 39.312253)"><g><path d="M 7.203125 0 L 2.90625 0 C 2.5625 0 2.304688 -0.078125 2.140625 -0.234375 C 1.984375 -0.390625 1.90625 -0.644531 1.90625 -1 L 1.90625 -18.96875 C 1.90625 -19.320312 1.984375 -19.578125 2.140625 -19.734375 C 2.304688 -19.890625 2.5625 -19.96875 2.90625 -19.96875 L 11.40625 -19.96875 C 13.914062 -19.96875 15.628906 -19.46875 16.546875 -18.46875 C 17.472656 -17.46875 17.9375 -16.164062 17.9375 -14.5625 L 17.9375 -11.015625 C 17.9375 -9.398438 17.472656 -8.09375 16.546875 -7.09375 C 15.628906 -6.101562 13.914062 -5.609375 11.40625 -5.609375 L 8.203125 -5.609375 L 8.203125 -1 C 8.203125 -0.644531 8.125 -0.390625 7.96875 -0.234375 C 7.8125 -0.078125 7.554688 0 7.203125 0 Z M 8.15625 -14.78125 L 8.15625 -10.59375 L 10.65625 -10.59375 C 11.1875 -10.59375 11.535156 -10.726562 11.703125 -11 C 11.867188 -11.28125 11.953125 -11.597656 11.953125 -11.953125 L 11.953125 -13.421875 C 11.953125 -13.773438 11.867188 -14.085938 11.703125 -14.359375 C 11.535156 -14.640625 11.1875 -14.78125 10.65625 -14.78125 Z M 8.15625 -14.78125 "/></g></g></g><g fill="rgb(0%, 100%, 100%)" fill-opacity="1"><g transform="translate(25.641798, 39.312253)"><g><path d="M 17.03125 0 L 2.90625 0 C 2.5625 0 2.304688 -0.078125 2.140625 -0.234375 C 1.984375 -0.390625 1.90625 -0.644531 1.90625 -1 L 1.90625 -18.96875 C 1.90625 -19.320312 1.984375 -19.578125 2.140625 -19.734375 C 2.304688 -19.890625 2.5625 -19.96875 2.90625 -19.96875 L 7.203125 -19.96875 C 7.554688 -19.96875 7.8125 -19.890625 7.96875 -19.734375 C 8.125 -19.578125 8.203125 -19.320312 8.203125 -18.96875 L 8.203125 -5.234375 L 12.015625 -5.234375 L 12.015625 -9.734375 C 12.015625 -10.085938 12.09375 -10.34375 12.25 -10.5 C 12.40625 -10.65625 12.65625 -10.734375 13 -10.734375 L 17.03125 -10.734375 C 17.382812 -10.734375 17.640625 -10.65625 17.796875 -10.5 C 17.953125 -10.34375 18.03125 -10.085938 18.03125 -9.734375 L 18.03125 -1 C 18.03125 -0.644531 17.953125 -0.390625 17.796875 -0.234375 C 17.640625 -0.078125 17.382812 0 17.03125 0 Z M 17.03125 0 "/></g></g></g><g fill="rgb(0%, 100%, 100%)" fill-opacity="1"><g transform="translate(44.919243, 39.312253)"><g><path d="M 9.15625 -14.140625 L 7.84375 -9.921875 L 12.203125 -9.921875 L 10.90625 -14.140625 C 10.820312 -14.304688 10.738281 -14.425781 10.65625 -14.5 C 10.570312 -14.570312 10.476562 -14.609375 10.375 -14.609375 L 9.671875 -14.609375 C 9.566406 -14.609375 9.472656 -14.570312 9.390625 -14.5 C 9.304688 -14.425781 9.226562 -14.304688 9.15625 -14.140625 Z M 7.578125 -1 C 7.578125 -0.644531 7.492188 -0.390625 7.328125 -0.234375 C 7.171875 -0.078125 6.921875 0 6.578125 0 L 2.5 0 C 2.144531 0 1.890625 -0.078125 1.734375 -0.234375 C 1.578125 -0.390625 1.5 -0.644531 1.5 -1 L 1.5 -8.3125 C 1.5 -8.875 1.585938 -9.515625 1.765625 -10.234375 C 1.941406 -10.953125 2.210938 -11.789062 2.578125 -12.75 L 4.984375 -19.046875 C 5.097656 -19.367188 5.269531 -19.601562 5.5 -19.75 C 5.738281 -19.894531 6.039062 -19.96875 6.40625 -19.96875 L 13.859375 -19.96875 C 14.210938 -19.96875 14.503906 -19.894531 14.734375 -19.75 C 14.972656 -19.601562 15.144531 -19.367188 15.25 -19.046875 L 17.671875 -12.75 C 18.035156 -11.789062 18.304688 -10.953125 18.484375 -10.234375 C 18.660156 -9.515625 18.75 -8.875 18.75 -8.3125 L 18.75 -1 C 18.75 -0.644531 18.671875 -0.390625 18.515625 -0.234375 C 18.359375 -0.078125 18.101562 0 17.75 0 L 13.5625 0 C 13.1875 0 12.910156 -0.078125 12.734375 -0.234375 C 12.566406 -0.390625 12.484375 -0.644531 12.484375 -1 L 12.484375 -4.875 L 7.578125 -4.875 Z M 7.578125 -1 "/></g></g></g><g fill="rgb(0%, 100%, 100%)" fill-opacity="1"><g transform="translate(65.167496, 39.312253)"><g><path d="M 12.03125 0 L 7.546875 0 C 7.191406 0 6.9375 -0.078125 6.78125 -0.234375 C 6.625 -0.390625 6.546875 -0.644531 6.546875 -1 L 6.546875 -4.546875 L 2.296875 -10.234375 C 1.867188 -10.804688 1.585938 -11.304688 1.453125 -11.734375 C 1.316406 -12.160156 1.25 -12.796875 1.25 -13.640625 L 1.25 -18.96875 C 1.25 -19.320312 1.328125 -19.578125 1.484375 -19.734375 C 1.640625 -19.890625 1.894531 -19.96875 2.25 -19.96875 L 6.515625 -19.96875 C 6.867188 -19.96875 7.125 -19.890625 7.28125 -19.734375 C 7.4375 -19.578125 7.515625 -19.320312 7.515625 -18.96875 L 7.515625 -14.421875 C 7.515625 -14.234375 7.523438 -14.035156 7.546875 -13.828125 C 7.566406 -13.628906 7.640625 -13.4375 7.765625 -13.25 L 9.046875 -11.265625 C 9.140625 -11.097656 9.234375 -10.972656 9.328125 -10.890625 C 9.429688 -10.816406 9.554688 -10.78125 9.703125 -10.78125 L 9.984375 -10.78125 C 10.128906 -10.78125 10.253906 -10.816406 10.359375 -10.890625 C 10.460938 -10.972656 10.5625 -11.097656 10.65625 -11.265625 L 11.921875 -13.25 C 12.054688 -13.4375 12.128906 -13.628906 12.140625 -13.828125 C 12.160156 -14.035156 12.171875 -14.234375 12.171875 -14.421875 L 12.171875 -18.96875 C 12.171875 -19.320312 12.25 -19.578125 12.40625 -19.734375 C 12.5625 -19.890625 12.816406 -19.96875 13.171875 -19.96875 L 17.3125 -19.96875 C 17.65625 -19.96875 17.90625 -19.890625 18.0625 -19.734375 C 18.21875 -19.578125 18.296875 -19.320312 18.296875 -18.96875 L 18.296875 -13.640625 C 18.296875 -12.796875 18.222656 -12.160156 18.078125 -11.734375 C 17.929688 -11.304688 17.65625 -10.804688 17.25 -10.234375 L 13.03125 -4.515625 L 13.03125 -1 C 13.03125 -0.644531 12.953125 -0.390625 12.796875 -0.234375 C 12.640625 -0.078125 12.382812 0 12.03125 0 Z M 12.03125 0 "/></g></g></g><g fill="rgb(47.059631%, 26.269531%, 90.19928%)" fill-opacity="1"><g transform="translate(6.002257, 39.986165)"><g><path d="M 7.203125 0 L 2.90625 0 C 2.5625 0 2.304688 -0.078125 2.140625 -0.234375 C 1.984375 -0.390625 1.90625 -0.644531 1.90625 -1 L 1.90625 -18.96875 C 1.90625 -19.320312 1.984375 -19.578125 2.140625 -19.734375 C 2.304688 -19.890625 2.5625 -19.96875 2.90625 -19.96875 L 11.40625 -19.96875 C 13.914062 -19.96875 15.628906 -19.46875 16.546875 -18.46875 C 17.472656 -17.46875 17.9375 -16.164062 17.9375 -14.5625 L 17.9375 -11.015625 C 17.9375 -9.398438 17.472656 -8.09375 16.546875 -7.09375 C 15.628906 -6.101562 13.914062 -5.609375 11.40625 -5.609375 L 8.203125 -5.609375 L 8.203125 -1 C 8.203125 -0.644531 8.125 -0.390625 7.96875 -0.234375 C 7.8125 -0.078125 7.554688 0 7.203125 0 Z M 8.15625 -14.78125 L 8.15625 -10.59375 L 10.65625 -10.59375 C 11.1875 -10.59375 11.535156 -10.726562 11.703125 -11 C 11.867188 -11.28125 11.953125 -11.597656 11.953125 -11.953125 L 11.953125 -13.421875 C 11.953125 -13.773438 11.867188 -14.085938 11.703125 -14.359375 C 11.535156 -14.640625 11.1875 -14.78125 10.65625 -14.78125 Z M 8.15625 -14.78125 "/></g></g></g><g fill="rgb(47.059631%, 26.269531%, 90.19928%)" fill-opacity="1"><g transform="translate(24.919116, 39.986165)"><g><path d="M 17.03125 0 L 2.90625 0 C 2.5625 0 2.304688 -0.078125 2.140625 -0.234375 C 1.984375 -0.390625 1.90625 -0.644531 1.90625 -1 L 1.90625 -18.96875 C 1.90625 -19.320312 1.984375 -19.578125 2.140625 -19.734375 C 2.304688 -19.890625 2.5625 -19.96875 2.90625 -19.96875 L 7.203125 -19.96875 C 7.554688 -19.96875 7.8125 -19.890625 7.96875 -19.734375 C 8.125 -19.578125 8.203125 -19.320312 8.203125 -18.96875 L 8.203125 -5.234375 L 12.015625 -5.234375 L 12.015625 -9.734375 C 12.015625 -10.085938 12.09375 -10.34375 12.25 -10.5 C 12.40625 -10.65625 12.65625 -10.734375 13 -10.734375 L 17.03125 -10.734375 C 17.382812 -10.734375 17.640625 -10.65625 17.796875 -10.5 C 17.953125 -10.34375 18.03125 -10.085938 18.03125 -9.734375 L 18.03125 -1 C 18.03125 -0.644531 17.953125 -0.390625 17.796875 -0.234375 C 17.640625 -0.078125 17.382812 0 17.03125 0 Z M 17.03125 0 "/></g></g></g><g fill="rgb(47.059631%, 26.269531%, 90.19928%)" fill-opacity="1"><g transform="translate(44.196561, 39.986165)"><g><path d="M 9.15625 -14.140625 L 7.84375 -9.921875 L 12.203125 -9.921875 L 10.90625 -14.140625 C 10.820312 -14.304688 10.738281 -14.425781 10.65625 -14.5 C 10.570312 -14.570312 10.476562 -14.609375 10.375 -14.609375 L 9.671875 -14.609375 C 9.566406 -14.609375 9.472656 -14.570312 9.390625 -14.5 C 9.304688 -14.425781 9.226562 -14.304688 9.15625 -14.140625 Z M 7.578125 -1 C 7.578125 -0.644531 7.492188 -0.390625 7.328125 -0.234375 C 7.171875 -0.078125 6.921875 0 6.578125 0 L 2.5 0 C 2.144531 0 1.890625 -0.078125 1.734375 -0.234375 C 1.578125 -0.390625 1.5 -0.644531 1.5 -1 L 1.5 -8.3125 C 1.5 -8.875 1.585938 -9.515625 1.765625 -10.234375 C 1.941406 -10.953125 2.210938 -11.789062 2.578125 -12.75 L 4.984375 -19.046875 C 5.097656 -19.367188 5.269531 -19.601562 5.5 -19.75 C 5.738281 -19.894531 6.039062 -19.96875 6.40625 -19.96875 L 13.859375 -19.96875 C 14.210938 -19.96875 14.503906 -19.894531 14.734375 -19.75 C 14.972656 -19.601562 15.144531 -19.367188 15.25 -19.046875 L 17.671875 -12.75 C 18.035156 -11.789062 18.304688 -10.953125 18.484375 -10.234375 C 18.660156 -9.515625 18.75 -8.875 18.75 -8.3125 L 18.75 -1 C 18.75 -0.644531 18.671875 -0.390625 18.515625 -0.234375 C 18.359375 -0.078125 18.101562 0 17.75 0 L 13.5625 0 C 13.1875 0 12.910156 -0.078125 12.734375 -0.234375 C 12.566406 -0.390625 12.484375 -0.644531 12.484375 -1 L 12.484375 -4.875 L 7.578125 -4.875 Z M 7.578125 -1 "/></g></g></g><g fill="rgb(47.059631%, 26.269531%, 90.19928%)" fill-opacity="1"><g transform="translate(64.444814, 39.986165)"><g><path d="M 12.03125 0 L 7.546875 0 C 7.191406 0 6.9375 -0.078125 6.78125 -0.234375 C 6.625 -0.390625 6.546875 -0.644531 6.546875 -1 L 6.546875 -4.546875 L 2.296875 -10.234375 C 1.867188 -10.804688 1.585938 -11.304688 1.453125 -11.734375 C 1.316406 -12.160156 1.25 -12.796875 1.25 -13.640625 L 1.25 -18.96875 C 1.25 -19.320312 1.328125 -19.578125 1.484375 -19.734375 C 1.640625 -19.890625 1.894531 -19.96875 2.25 -19.96875 L 6.515625 -19.96875 C 6.867188 -19.96875 7.125 -19.890625 7.28125 -19.734375 C 7.4375 -19.578125 7.515625 -19.320312 7.515625 -18.96875 L 7.515625 -14.421875 C 7.515625 -14.234375 7.523438 -14.035156 7.546875 -13.828125 C 7.566406 -13.628906 7.640625 -13.4375 7.765625 -13.25 L 9.046875 -11.265625 C 9.140625 -11.097656 9.234375 -10.972656 9.328125 -10.890625 C 9.429688 -10.816406 9.554688 -10.78125 9.703125 -10.78125 L 9.984375 -10.78125 C 10.128906 -10.78125 10.253906 -10.816406 10.359375 -10.890625 C 10.460938 -10.972656 10.5625 -11.097656 10.65625 -11.265625 L 11.921875 -13.25 C 12.054688 -13.4375 12.128906 -13.628906 12.140625 -13.828125 C 12.160156 -14.035156 12.171875 -14.234375 12.171875 -14.421875 L 12.171875 -18.96875 C 12.171875 -19.320312 12.25 -19.578125 12.40625 -19.734375 C 12.5625 -19.890625 12.816406 -19.96875 13.171875 -19.96875 L 17.3125 -19.96875 C 17.65625 -19.96875 17.90625 -19.890625 18.0625 -19.734375 C 18.21875 -19.578125 18.296875 -19.320312 18.296875 -18.96875 L 18.296875 -13.640625 C 18.296875 -12.796875 18.222656 -12.160156 18.078125 -11.734375 C 17.929688 -11.304688 17.65625 -10.804688 17.25 -10.234375 L 13.03125 -4.515625 L 13.03125 -1 C 13.03125 -0.644531 12.953125 -0.390625 12.796875 -0.234375 C 12.640625 -0.078125 12.382812 0 12.03125 0 Z M 12.03125 0 "/></g></g></g></svg>